<svg width="89" height="22" viewBox="0 0 89 22" fill="none" xmlns="http://www.w3.org/2000/svg">
<path d="M86.0744 17.8969C84.1847 19.7254 81.622 20.7525 78.9494 20.7521L78.9574 18.8003C80.5519 18.8022 82.1115 18.346 83.4388 17.4893C84.7661 16.6326 85.8002 15.4141 86.4115 13.988C87.0228 12.5619 87.1833 10.9923 86.8732 9.47785C86.5621 7.96344 85.7942 6.57224 84.6664 5.48047C83.5386 4.3887 82.1016 3.6454 80.537 3.34462C78.9724 3.04385 77.3509 3.19921 75.878 3.79091C74.4042 4.38262 73.1457 5.38421 72.2602 6.6688C71.3757 7.9533 70.904 9.46317 70.906 11.0072C70.9 11.2654 70.7933 11.5117 70.6068 11.6968C70.5141 11.7882 70.4024 11.8607 70.2808 11.9104C70.1581 11.9601 70.0274 11.986 69.8948 11.9865L66.0117 11.9796V10.0348L68.8966 10.0693C69.0552 8.51479 69.5967 7.01989 70.4762 5.71028C71.3557 4.40058 72.5464 3.3145 73.9505 2.54339C75.3535 1.77229 76.9271 1.33865 78.5396 1.27907C80.1521 1.2195 81.7555 1.53562 83.2154 2.2009C84.6753 2.86618 85.9488 3.86111 86.929 5.10206C87.9093 6.34292 88.5665 7.7936 88.8467 9.33176C89.1269 10.87 89.0212 12.4508 88.5396 13.9414C88.0569 15.4319 87.2112 16.7884 86.0744 17.8969Z" fill="#CE1446"/>
<path d="M51.731 11.9844V10.0332H58.159V11.9844H51.731Z" fill="#CE1446"/>
<path d="M38.8232 11.98V10.0288H44.0027V11.98H38.8232Z" fill="#CE1446"/>
<path d="M15.4521 11.981V10.0298H20.7124V11.981H15.4521Z" fill="#CE1446"/>
<path d="M0 11.9742V10.0229H5.17948V11.9742H0Z" fill="#CE1446"/>
<path d="M16.3032 21.7103C16.2095 21.8017 16.0988 21.8742 15.9771 21.9239C15.8545 21.9736 15.7228 21.9995 15.5902 22H5.23125C4.965 21.9992 4.70972 21.8966 4.52224 21.7144C4.33377 21.5322 4.22805 21.2853 4.22705 21.0276V0.972429C4.22805 0.714717 4.33377 0.46782 4.52224 0.285617C4.70972 0.103413 4.965 0.000772458 5.23125 0H15.5902C15.8565 0.000772458 16.1118 0.103413 16.3002 0.285617C16.4887 0.46782 16.5944 0.714717 16.5954 0.972429L16.6163 21.0069C16.6163 21.1386 16.5884 21.2688 16.5346 21.3897C16.4807 21.5106 16.4019 21.6197 16.3032 21.7103ZM6.23643 20.0483H14.586V1.95171H6.23643V20.0483Z" fill="#CE1446"/>
<path d="M36.8937 17.8065C35.726 18.9551 34.283 19.8058 32.6925 20.2826C31.1019 20.7594 29.4147 20.8473 27.7812 20.5386C26.1478 20.2299 24.6181 19.5343 23.3297 18.5136C22.0413 17.4931 21.0341 16.1795 20.3989 14.6902C19.7637 13.2009 19.5184 11.5824 19.6869 9.97923C19.8555 8.37609 20.4318 6.83842 21.3642 5.50351C22.2966 4.16851 23.5561 3.07799 25.03 2.32938C26.5038 1.58077 28.1472 1.19734 29.8115 1.21337C31.799 1.21907 33.7405 1.79359 35.3919 2.86479C37.0423 3.9359 38.3297 5.45571 39.0905 7.23304C39.8504 9.01037 40.0518 10.9659 39.6669 12.8534C39.283 14.741 38.3297 16.4762 36.9296 17.8409L36.8937 17.8065ZM24.0696 5.39266C22.7493 6.66876 21.9286 8.34828 21.7452 10.1451C21.5617 11.9419 22.0274 13.7446 23.0635 15.2459C24.0995 16.7474 25.6412 17.8546 27.4262 18.3788C29.2102 18.9032 31.1278 18.812 32.851 18.1209C34.5742 17.43 35.9972 16.1819 36.8757 14.5894C37.7543 12.9969 38.0355 11.1587 37.6715 9.38791C37.3075 7.61725 36.3193 6.02366 34.8773 4.87888C33.4344 3.7341 31.6275 3.10889 29.7617 3.10995C27.6297 3.11835 25.5884 3.94411 24.0836 5.40647L24.0696 5.39266Z" fill="#CE1446"/>
<path d="M52.4888 20.3797C52.396 20.471 52.2854 20.5436 52.1627 20.5933C52.0401 20.6429 51.9094 20.6688 51.7768 20.6694H44.0106C43.7443 20.6686 43.49 20.5659 43.3015 20.3837C43.1131 20.2015 43.0073 19.9546 43.0063 19.697V2.15212C43.0073 1.8944 43.1131 1.64751 43.3015 1.4653C43.49 1.2831 43.7443 1.18046 44.0106 1.17969H51.7768C52.043 1.18046 52.2983 1.2831 52.4858 1.4653C52.6743 1.64751 52.781 1.8944 52.781 2.15212L52.7879 19.69C52.7879 19.8184 52.761 19.9454 52.7101 20.0638C52.6583 20.1821 52.5835 20.2894 52.4888 20.3797ZM45.0436 18.6901H50.7437V3.10378H45.0436V18.6901Z" fill="#CE1446"/>
<path d="M66.7321 20.3862C66.6374 20.4771 66.5247 20.5488 66.401 20.5974C66.2774 20.6459 66.1458 20.6703 66.0122 20.6689H58.2459C57.9797 20.6682 57.7254 20.5655 57.5369 20.3833C57.3484 20.2011 57.2427 19.9542 57.2417 19.6965V2.15165C57.2407 2.02294 57.2667 1.89539 57.3176 1.77634C57.3684 1.65728 57.4422 1.54904 57.5369 1.45808C57.6307 1.36703 57.7424 1.2949 57.866 1.24585C57.9887 1.1968 58.1203 1.17189 58.2529 1.17237H66.0191C66.2854 1.17314 66.5407 1.27588 66.7292 1.45808C66.9166 1.64029 67.0233 1.88718 67.0233 2.1448V19.6896C67.0253 19.8186 67.0004 19.9467 66.9496 20.0662C66.8997 20.1859 66.8259 20.2946 66.7321 20.3862ZM59.279 18.6896H64.9791V3.10342H59.279V18.6896Z" fill="#CE1446"/>
</svg>
