<svg width="100" height="35" viewBox="0 0 100 35" fill="none" xmlns="http://www.w3.org/2000/svg">
<path d="M99.6556 21.2342C99.1598 19.5069 98.1763 18.2039 96.4941 17.0409C95.0885 16.0695 93.144 15.1886 90.2017 14.1914C86.3455 12.8841 84.2802 11.6608 83.6224 10.2931C83.2782 9.57808 83.2905 8.75319 83.6552 7.99076C84.2166 6.81696 85.7144 5.98345 87.7962 5.67762C89.2633 5.46224 91.2897 5.51178 92.726 5.79392L92.9985 5.84776L92.9821 8.13291C92.9698 9.38855 92.9698 10.4202 92.9739 10.4202C93.0395 10.4245 97.9652 10.5171 97.9693 10.515C97.9816 10.4977 98.3217 1.36578 98.3094 1.33563C98.2828 1.26886 96.2461 0.814423 94.8569 0.568894C90.8471 -0.141848 87.829 -0.169849 85.0752 0.482741C83.0037 0.973799 81.2375 1.82884 79.8462 3.00695C79.502 3.29986 78.8135 4.02353 78.5451 4.3789C77.3772 5.91884 76.7912 7.75169 76.7912 9.84084C76.7912 11.7361 77.201 13.3709 78.0083 14.648C79.4016 16.86 81.8153 18.3611 86.6201 19.9872C88.6732 20.6829 89.2776 20.909 90.007 21.2342C90.4619 21.4389 91.0827 21.7641 91.4106 21.973C92.4637 22.6385 92.9719 23.276 93.1481 24.1483C93.2157 24.48 93.2239 25.2489 93.1563 25.4944C92.9432 26.2891 92.3306 26.9611 91.3348 27.4866C90.5705 27.8829 89.7099 28.1414 88.6178 28.2857C88.331 28.3223 88.0892 28.3266 87.2737 28.3266C86.2164 28.3266 85.8968 28.3094 84.9645 28.178C82.8295 27.8721 80.4384 27.198 78.2624 26.2891C78.0943 26.2137 77.953 26.1556 77.9448 26.1556C77.9386 26.1556 77.8013 26.4227 77.6456 26.7436C77.0289 27.9971 76.0884 29.6856 75.32 30.896C75.0987 31.2363 75.0762 31.2751 75.1151 31.3074C75.1991 31.3849 76.5084 32.0526 76.9203 32.2378C79.7458 33.5021 82.7701 34.1891 86.0566 34.3162C88.2736 34.3959 90.1177 34.2107 91.9146 33.7218C96.2728 32.5329 99.0983 29.7804 99.8113 26.007C100.113 24.4412 100.047 22.5997 99.6556 21.2342Z" fill="#CCCCCF"/>
<path d="M75.6543 15.6935C74.6974 11.9804 72.3554 8.77777 69.1673 6.81785C67.3478 5.7022 65.4095 5.05607 63.2724 4.85577C62.4077 4.77393 60.7153 4.81269 60.6005 4.91823C60.5309 4.98499 59.9797 5.86804 59.7666 6.26649C59.656 6.46678 59.4552 6.87384 59.3158 7.16676C57.1624 11.8038 57.5025 17.3497 60.1948 21.6594C61.3873 23.5763 62.92 25.1141 64.7968 26.2986C65.1062 26.4925 66.0631 27.0094 66.3417 27.1364L66.4708 27.1903L66.4114 27.2377C66.3786 27.2657 66.2188 27.3712 66.0508 27.4724C65.1226 28.0561 64.2497 28.3835 63.1884 28.5601C62.8933 28.6075 62.7519 28.6161 62.1147 28.6161C61.3197 28.6161 61.1742 28.6032 60.5636 28.4761C58.7052 28.0863 56.9923 26.9254 55.7957 25.2584C54.8511 23.9424 54.2713 22.424 54.0643 20.7161C54.0029 20.2099 54.0029 18.9285 54.0643 18.4266C54.259 16.8307 54.7897 15.3597 55.6318 14.1169L55.7957 13.8736L55.8244 13.3416C55.9637 10.5482 56.7403 7.3046 57.65 5.7302C57.7053 5.62466 57.7586 5.53636 57.7504 5.5299C57.7422 5.52128 57.187 5.73235 56.8427 5.8745C53.8164 7.14737 51.2122 9.61559 49.6939 12.6545C48.7698 14.5025 48.2658 16.3202 48.0854 18.4697C48.0424 18.9758 48.0506 20.2659 48.0998 20.8345C48.2699 22.7643 48.7493 24.5433 49.5689 26.2491C49.6734 26.4731 49.7595 26.6562 49.7595 26.6734C49.7595 26.7057 49.4357 27.0288 49.1673 27.2614C48.3682 27.9678 47.3745 28.5105 46.4299 28.7561C45.1821 29.0878 44.1002 29.0145 43.2028 28.5407C42.1578 27.9893 41.4017 26.9168 41.1149 25.575C40.9755 24.9138 40.9796 25.2325 40.9796 17.858V11.0888H44.5961H48.2125L48.2063 8.46332L48.2002 5.84004L44.5899 5.83142L40.9796 5.82712L40.9735 3.00999L40.9673 0.192871H37.7115H34.4578L34.4516 3.00999L34.4455 5.82712L32.0707 5.83142L29.6939 5.84004L29.6878 8.46332L29.6816 11.0888H32.0666H34.4496V18.1617C34.4496 22.5748 34.4578 25.3962 34.4742 25.6654C34.5582 27.1795 34.8655 28.4976 35.3942 29.637C36.5928 32.2064 39.0024 33.8303 42.2029 34.2116C44.553 34.4937 46.7966 34.1103 48.8292 33.0894C50.0832 32.4476 51.247 31.5517 52.0994 30.5695L52.3821 30.2379L52.4395 30.2852C52.4784 30.3132 52.5276 30.3585 52.5542 30.3929C52.5829 30.4231 52.7161 30.5523 52.8554 30.6837C55.1421 32.7922 58.0229 34.0586 61.0677 34.3042C61.4529 34.3386 62.7151 34.3429 63.0736 34.3063C64.8931 34.162 66.5712 33.686 68.153 32.8827C71.9108 30.9766 74.6851 27.4401 75.7076 23.2467C75.9985 22.0514 76.1112 21.1447 76.1317 19.8524C76.1583 18.3168 76.0149 17.115 75.6543 15.6935ZM70.0073 21.4656C69.9643 21.7003 69.8967 21.9911 69.868 22.1139C69.8393 22.2345 69.8065 22.3314 69.7942 22.3357C69.7799 22.34 69.6385 22.2905 69.4787 22.2345C68.4952 21.8619 67.6818 21.373 66.8929 20.6644C66.6142 20.421 66.0528 19.8115 65.8254 19.5035C64.7599 18.1036 64.1493 16.5249 63.924 14.6403C63.8809 14.2828 63.8809 12.9345 63.924 12.5813C64.008 11.8792 64.2211 10.8518 64.2825 10.8518C64.301 10.8518 64.4239 10.8949 64.5653 10.9423C66.8499 11.7758 68.6673 13.6517 69.5873 16.1286C70.1938 17.787 70.3475 19.6866 70.0073 21.4656Z" fill="#CCCCCF"/>
<path d="M32.4946 29.5314L31.216 29.5206L26.2718 14.875L21.3256 0.225098L14.5518 0.229403L7.77787 0.235865V2.32071V4.4034L9.46417 4.40986C10.3903 4.41201 11.1505 4.42493 11.1505 4.43786C11.1505 4.45293 3.30088 27.7782 2.81323 29.2083L2.70464 29.5378H1.35232H0V31.6334V33.7312H5.68383H11.3677V31.6334V29.5378L10.0399 29.5292L8.71425 29.5206L9.48057 27.2462L10.2469 24.9697L16.3917 24.9675L22.5386 24.9611L22.5898 25.1054C22.8091 25.745 24.0692 29.4969 24.0692 29.5098C24.0692 29.527 23.5303 29.5378 22.8255 29.5378H21.5797L21.5859 31.627L21.592 33.7247H27.6754H33.7567L33.7629 31.627L33.769 29.5378L32.4946 29.5314ZM16.3835 19.7748C12.2098 19.7748 11.9926 19.7705 12.009 19.7296C12.0172 19.6994 12.9945 16.8069 14.1788 13.2898C15.3631 9.77273 16.3467 6.86299 16.361 6.81776L16.3897 6.74238L16.4409 6.8953C16.4675 6.9793 17.4551 9.90626 18.6333 13.3954C19.8135 16.8888 20.7765 19.7533 20.7765 19.7597C20.7765 19.7662 18.8013 19.7748 16.3835 19.7748Z" fill="#CCCCCF"/>
</svg>
